<svg width="861" height="200" viewBox="0 0 861 200" fill="none" xmlns="http://www.w3.org/2000/svg">
<g clip-path="url(#clip0_112_76)">
<rect width="200" height="200" rx="40" fill="url(#paint0_linear_112_76)"/>
<path fill-rule="evenodd" clip-rule="evenodd" d="M155.591 82.9682L38 38V71.1212L114.174 99.4774L155.591 82.9682ZM40.501 161.999V134.226L162.001 85.7961V112.343L40.501 161.999Z" fill="white"/>
</g>
<path d="M357.078 34.0947C342.744 20.9292 321.936 14 303.44 14C272.922 14 240.092 29.0133 240.092 65.2762C240.092 94.8409 261.131 105.466 281.939 112.164C303.44 119.093 315.925 123.02 315.925 135.492C315.925 148.658 305.29 153.277 293.268 153.277C280.32 153.277 265.755 145.886 257.894 135.954L232 162.285C246.334 177.299 269.917 185.845 293.268 185.845C325.635 185.845 355.922 168.984 355.922 131.335C355.922 98.7675 327.254 89.2975 305.059 82.1373C289.568 77.2869 279.858 73.8223 279.858 62.9665C279.858 50.0319 292.574 46.5673 302.747 46.5673C312.919 46.5673 325.173 52.1107 331.878 60.6567L357.078 34.0947ZM499.455 181.687V18.1575H459.92V80.0586H396.109V18.1575H356.574V181.687H396.109V113.319H459.92V181.687H499.455ZM650.12 18.1575H603.88L568.969 78.6727L534.058 18.1575H486.2L547.699 112.395V181.687H587.234V112.395L650.12 18.1575ZM744.667 51.8797V18.1575H636.929V181.687H676.001V118.169H739.35V85.6019H676.001V51.8797H744.667ZM861 51.8797V18.1575H728.986V51.8797H775.225V181.687H814.76V51.8797H861Z" fill="white"/>
<defs>
<linearGradient id="paint0_linear_112_76" x1="13.5" y1="2.25604e-06" x2="179.9" y2="200" gradientUnits="userSpaceOnUse">
<stop stop-color="#FF5555"/>
<stop offset="1" stop-color="#E33535"/>
</linearGradient>
<clipPath id="clip0_112_76">
<rect width="200" height="200" fill="white"/>
</clipPath>
</defs>
</svg>
