<svg width="16" height="16" viewBox="0 0 16 16" fill="none" xmlns="http://www.w3.org/2000/svg">
<g clip-path="url(#clip0_1821_41088)">
<path d="M0.842747 6.55421H15.1579C15.4943 6.55421 15.7971 6.36577 15.9317 6.08301C16.0663 5.80037 15.999 5.45485 15.7635 5.23497L11.659 1.24576C11.3394 0.931672 10.8179 0.915882 10.4815 1.21431C10.1451 1.51275 10.1282 1.99959 10.4479 2.31367L13.1898 4.98359L0.842786 4.9837C0.388574 4.9837 0.00170898 5.32922 0.00170898 5.76898C0.00170898 6.20874 0.371783 6.55426 0.842786 6.55426L0.842747 6.55421Z" fill="#FDF41B"/>
<path d="M15.1407 9.45605H0.842431C0.50603 9.45605 0.203182 9.64449 0.0685801 9.92725C-0.0660073 10.2099 0.00134502 10.5554 0.236844 10.7753L4.32448 14.7645C4.49274 14.9216 4.71134 15 4.93005 15C5.13188 15 5.35059 14.9215 5.50196 14.7802C5.83836 14.4817 5.85527 13.9949 5.53563 13.6808L2.79369 11.0109H15.1407C15.5949 11.0109 15.9818 10.6654 15.9818 10.2256C15.9819 9.80165 15.6118 9.4561 15.1408 9.4561L15.1407 9.45605Z" fill="#FDF41B"/>
</g>
<defs>
<clipPath id="clip0_1821_41088">
<rect width="16" height="16" fill="white"/>
</clipPath>
</defs>
</svg>
